<svg width="334" height="136" viewBox="0 0 334 136" fill="none" xmlns="http://www.w3.org/2000/svg">
<path d="M45.8468 58.1111C40.932 58.1111 36.799 58.9675 33.448 60.6802C30.097 62.393 28.4215 65.4834 28.4215 69.9514C28.4215 73.8981 29.8736 76.8024 32.7778 78.664C35.682 80.5257 39.3309 81.4566 43.7245 81.4566H48.751C55.2296 81.4566 60.6657 82.9087 65.0593 85.8129C69.4528 88.7171 71.6496 93.4458 71.6496 99.9989C71.6496 105.212 69.8624 109.531 66.288 112.956C62.7136 116.382 57.6498 118.094 51.0967 118.094C46.6287 118.094 42.8309 117.35 39.7032 115.86C36.5756 114.371 34.1554 112.621 32.4427 110.61C30.8044 108.6 29.7247 106.738 29.2034 105.025V124.908H24.8471V96.5361H28.8683C29.464 101.823 31.6236 106.142 35.3469 109.493C39.0703 112.77 44.0596 114.408 50.3148 114.408C55.7509 114.408 59.9211 113.031 62.8253 110.275C65.804 107.52 67.2933 104.095 67.2933 99.9989C67.2933 94.5628 65.4316 90.6905 61.7083 88.382C58.0594 86.0735 53.5169 84.9193 48.0808 84.9193H42.7192C37.2831 84.9193 32.7778 83.6533 29.2034 81.1215C25.7034 78.5896 23.9535 74.829 23.9535 69.8397C23.9535 64.4036 25.9268 60.4941 29.8736 58.1111C33.8203 55.7282 38.6235 54.5367 44.283 54.5367H60.5913V38.1167H8.31537V34.2072H83.3782V38.1167H64.9476V58.1111H45.8468Z" fill="white"/>
<path d="M120.022 72.7439V77.1002H78.0227V72.7439H120.022Z" fill="white"/>
<path d="M148.106 78.9991V93.8553C148.106 99.9616 149.558 104.839 152.462 108.488C155.441 112.063 159.835 113.85 165.643 113.85C170.707 113.85 174.691 112.174 177.595 108.823C180.574 105.472 182.063 101.041 182.063 95.5308V94.1904H186.419V95.5308C186.419 102.382 184.558 107.818 180.834 111.839C177.111 115.86 172.047 117.871 165.643 117.871C158.494 117.871 153.021 115.674 149.223 111.281C145.5 106.887 143.638 100.967 143.638 93.5202V75.0896H160.393C167.17 75.0896 172.643 73.4141 176.813 70.0631C181.058 66.7121 183.18 61.9089 183.18 55.6537C183.18 49.9197 181.616 45.4145 178.489 42.1379C175.361 38.8614 171.154 37.2231 165.866 37.2231C160.654 37.2231 156.446 38.8614 153.244 42.1379C150.117 45.4145 148.553 49.8453 148.553 55.4303C148.553 57.0686 148.739 58.9303 149.111 61.0153H144.532C144.234 58.4835 144.085 56.5845 144.085 55.3186C144.085 48.6166 146.058 43.2549 150.005 39.2337C153.952 35.2125 159.239 33.2019 165.866 33.2019C172.494 33.2019 177.781 35.2125 181.728 39.2337C185.749 43.2549 187.76 48.8027 187.76 55.8771C187.76 63.2494 185.34 68.9461 180.499 72.9673C175.659 76.9885 169.329 78.9991 161.51 78.9991H148.106ZM223.951 34.2072V38.1167H207.084V116.866H202.504V34.2072H223.951Z" fill="white"/>
<path d="M233.673 116.866V38.1167H216.806V34.2072H255.12V38.1167H238.253V116.866H233.673ZM256.348 7.62244C256.348 10.5267 255.604 13.3192 254.114 16C252.625 18.6808 250.354 20.8776 247.301 22.5903C244.247 24.2286 240.487 25.0477 236.019 25.0477C231.476 25.0477 227.679 24.2286 224.625 22.5903C221.572 20.8776 219.301 18.6808 217.812 16C216.322 13.3192 215.578 10.5267 215.578 7.62244H219.599C219.599 9.85645 220.195 12.0532 221.386 14.2128C222.578 16.2979 224.402 18.0106 226.859 19.351C229.317 20.6914 232.37 21.3616 236.019 21.3616C239.593 21.3616 242.609 20.6914 245.067 19.351C247.524 18.0106 249.348 16.2979 250.54 14.2128C251.731 12.0532 252.327 9.85645 252.327 7.62244H256.348Z" fill="white"/>
<path d="M326.865 38.1167H309.998V116.866H305.418V80.6747C303.705 84.3235 301.136 87.1905 297.711 89.2756C294.36 91.3607 290.301 92.4032 285.535 92.4032C277.865 92.4032 272.057 90.0575 268.11 85.3661C264.163 80.6002 262.19 73.9726 262.19 65.4834V38.1167H248.004V34.2072H326.865V38.1167ZM305.418 38.1167H266.658V65.4834C266.658 72.8556 268.259 78.5523 271.461 82.5736C274.738 86.5203 279.69 88.4937 286.317 88.4937C290.264 88.4937 293.69 87.6001 296.594 85.8129C299.498 84.0257 301.695 81.6427 303.184 78.664C304.673 75.6854 305.418 72.3716 305.418 68.7227V38.1167Z" fill="white"/>
</svg>
