<svg width="482" height="196" viewBox="0 0 482 196" fill="none" xmlns="http://www.w3.org/2000/svg">
<path d="M66.1621 83.8609C59.0694 83.8609 53.1052 85.0968 48.2693 87.5684C43.4334 90.0401 41.0154 94.4999 41.0154 100.948C41.0154 106.643 43.111 110.834 47.3021 113.521C51.4932 116.208 56.759 117.551 63.0994 117.551H70.3532C79.7026 117.551 87.5475 119.647 93.8879 123.838C100.228 128.029 103.399 134.853 103.399 144.31C103.399 151.832 100.819 158.065 95.6611 163.008C90.5028 167.952 83.1952 170.424 73.7383 170.424C67.2905 170.424 61.8098 169.349 57.2963 167.2C52.7828 165.05 49.2902 162.525 46.8185 159.623C44.4543 156.722 42.896 154.035 42.1438 151.564V180.257H35.8571V139.313H41.6602C42.5199 146.943 45.6364 153.175 51.0096 158.011C56.3828 162.74 63.5829 165.104 72.61 165.104C80.4549 165.104 86.4729 163.116 90.664 159.14C94.9626 155.164 97.1119 150.22 97.1119 144.31C97.1119 136.465 94.4253 130.877 89.052 127.545C83.7863 124.214 77.2309 122.548 69.386 122.548H61.6486C53.8037 122.548 47.3021 120.721 42.1438 117.067C37.093 113.414 34.5675 107.987 34.5675 100.787C34.5675 92.9417 37.4153 87.2998 43.111 83.8609C48.8066 80.4221 55.738 78.7026 63.9053 78.7026H87.4401V55.0067H12V49.3648H120.324V55.0067H93.7267V83.8609H66.1621Z" fill="black"/>
<path d="M173.206 104.978V111.264H112.596V104.978H173.206Z" fill="black"/>
<path d="M213.734 114.005V135.444C213.734 144.256 215.829 151.295 220.021 156.561C224.319 161.719 230.66 164.298 239.042 164.298C246.349 164.298 252.099 161.88 256.29 157.044C260.588 152.208 262.738 145.814 262.738 137.862V135.927H269.024V137.862C269.024 147.749 266.338 155.593 260.965 161.397C255.591 167.2 248.284 170.101 239.042 170.101C228.725 170.101 220.827 166.931 215.346 160.591C209.973 154.25 207.286 145.707 207.286 134.96V108.363H231.466C241.245 108.363 249.143 105.945 255.161 101.109C261.287 96.2731 264.35 89.3416 264.35 80.3146C264.35 72.0398 262.093 65.5382 257.579 60.8098C253.066 56.0813 246.994 53.7171 239.364 53.7171C231.842 53.7171 225.77 56.0813 221.149 60.8098C216.635 65.5382 214.379 71.9324 214.379 79.9922C214.379 82.3564 214.647 85.043 215.185 88.052H208.576C208.146 84.3982 207.931 81.6579 207.931 79.831C207.931 70.1592 210.779 62.4218 216.474 56.6187C222.17 50.8156 229.8 47.914 239.364 47.914C248.929 47.914 256.558 50.8156 262.254 56.6187C268.057 62.4218 270.959 70.4279 270.959 80.637C270.959 91.276 267.466 99.497 260.481 105.3C253.496 111.103 244.361 114.005 233.077 114.005H213.734ZM323.186 49.3648V55.0067H298.846V168.65H292.237V49.3648H323.186Z" fill="black"/>
<path d="M337.217 168.65V55.0067H312.876V49.3648H368.167V55.0067H343.826V168.65H337.217ZM369.94 11C369.94 15.1911 368.865 19.221 366.716 23.0898C364.567 26.9585 361.289 30.1287 356.883 32.6004C352.477 34.9646 347.05 36.1467 340.602 36.1467C334.047 36.1467 328.566 34.9646 324.16 32.6004C319.754 30.1287 316.476 26.9585 314.327 23.0898C312.178 19.221 311.103 15.1911 311.103 11H316.906C316.906 14.2239 317.766 17.3941 319.485 20.5106C321.205 23.5196 323.838 25.9913 327.384 27.9257C330.93 29.86 335.336 30.8272 340.602 30.8272C345.76 30.8272 350.113 29.86 353.659 27.9257C357.205 25.9913 359.838 23.5196 361.558 20.5106C363.277 17.3941 364.137 14.2239 364.137 11H369.94Z" fill="black"/>
<path d="M471.703 55.0067H447.362V168.65H440.753V116.423C438.281 121.688 434.574 125.826 429.63 128.835C424.795 131.844 418.938 133.348 412.06 133.348C400.991 133.348 392.609 129.963 386.913 123.193C381.218 116.315 378.37 106.751 378.37 94.4999V55.0067H357.898V49.3648H471.703V55.0067ZM440.753 55.0067H384.818V94.4999C384.818 105.139 387.128 113.36 391.749 119.163C396.478 124.859 403.624 127.706 413.188 127.706C418.884 127.706 423.827 126.417 428.018 123.838C432.21 121.259 435.38 117.82 437.529 113.521C439.678 109.223 440.753 104.44 440.753 99.1746V55.0067Z" fill="black"/>
</svg>
