<svg width="58" height="24" viewBox="0 0 58 24" fill="none" xmlns="http://www.w3.org/2000/svg">
<g clip-path="url(#clip0_134_270)">
<path d="M8.01326 10.1569C7.15423 10.1569 6.43187 10.3065 5.84617 10.6059C5.26046 10.9053 4.96761 11.4454 4.96761 12.2263C4.96761 12.9162 5.22142 13.4238 5.72903 13.7492C6.23663 14.0746 6.8744 14.2372 7.64232 14.2372H8.52087C9.65323 14.2372 10.6034 14.4911 11.3713 14.9987C12.1392 15.5063 12.5232 16.3328 12.5232 17.4781C12.5232 18.3892 12.2108 19.1441 11.586 19.7428C10.9613 20.3416 10.0762 20.6409 8.93086 20.6409C8.14993 20.6409 7.48613 20.5108 6.93948 20.2505C6.39282 19.9901 5.96981 19.6843 5.67046 19.3329C5.38411 18.9814 5.19539 18.656 5.10428 18.3567V21.8318H4.34286V16.8729H5.04571C5.14983 17.797 5.52728 18.5519 6.17806 19.1376C6.82884 19.7103 7.70089 19.9966 8.7942 19.9966C9.74434 19.9966 10.4732 19.7559 10.9808 19.2743C11.5014 18.7927 11.7618 18.194 11.7618 17.4781C11.7618 16.528 11.4364 15.8512 10.7856 15.4477C10.1478 15.0442 9.35387 14.8425 8.40373 14.8425H7.46661C6.51647 14.8425 5.72903 14.6212 5.10428 14.1787C4.49254 13.7361 4.18668 13.0789 4.18668 12.2068C4.18668 11.2567 4.53159 10.5734 5.22142 10.1569C5.91124 9.74036 6.75075 9.53211 7.73994 9.53211H10.5904V6.66216H1.4534V5.97885H14.5731V6.66216H11.3518V10.1569H8.01326Z" fill="black"/>
<path d="M20.9779 12.7144V13.4758H13.6371V12.7144H20.9779Z" fill="black"/>
<path d="M25.8865 13.8077V16.4043C25.8865 17.4716 26.1403 18.3241 26.6479 18.9619C27.1685 19.5867 27.9364 19.899 28.9517 19.899C29.8367 19.899 30.5331 19.6062 31.0407 19.0205C31.5613 18.4348 31.8216 17.6603 31.8216 16.6972V16.4629H32.583V16.6972C32.583 17.8946 32.2576 18.8448 31.6068 19.5476C30.9561 20.2505 30.071 20.6019 28.9517 20.6019C27.7022 20.6019 26.7455 20.2179 26.0817 19.45C25.4309 18.6821 25.1055 17.6473 25.1055 16.3458V13.1244H28.0341C29.2185 13.1244 30.1751 12.8316 30.904 12.2459C31.6459 11.6602 32.0168 10.8206 32.0168 9.72734C32.0168 8.72514 31.7435 7.93769 31.1968 7.36501C30.6502 6.79232 29.9148 6.50598 28.9907 6.50598C28.0796 6.50598 27.3442 6.79232 26.7846 7.36501C26.2379 7.93769 25.9646 8.71212 25.9646 9.68829C25.9646 9.97464 25.9971 10.3 26.0622 10.6645H25.2617C25.2097 10.2219 25.1836 9.89003 25.1836 9.66877C25.1836 8.49737 25.5286 7.56024 26.2184 6.8574C26.9082 6.15456 27.8323 5.80314 28.9907 5.80314C30.1491 5.80314 31.0732 6.15456 31.763 6.8574C32.4659 7.56024 32.8173 8.5299 32.8173 9.76639C32.8173 11.0549 32.3943 12.0506 31.5483 12.7535C30.7023 13.4563 29.5959 13.8077 28.2293 13.8077H25.8865ZM39.1429 5.97885V6.66216H36.1948V20.4262H35.3944V5.97885H39.1429Z" fill="black"/>
<path d="M40.8422 20.4262V6.66216H37.8941V5.97885H44.5907V6.66216H41.6426V20.4262H40.8422ZM44.8054 1.33228C44.8054 1.83988 44.6753 2.32797 44.415 2.79653C44.1546 3.26509 43.7577 3.64905 43.224 3.94841C42.6904 4.23475 42.0331 4.37793 41.2522 4.37793C40.4582 4.37793 39.7944 4.23475 39.2608 3.94841C38.7271 3.64905 38.3302 3.26509 38.0699 2.79653C37.8095 2.32797 37.6794 1.83988 37.6794 1.33228H38.3822C38.3822 1.72274 38.4864 2.1067 38.6946 2.48416C38.9029 2.84859 39.2217 3.14795 39.6512 3.38223C40.0808 3.61651 40.6144 3.73365 41.2522 3.73365C41.8769 3.73365 42.4041 3.61651 42.8336 3.38223C43.2631 3.14795 43.582 2.84859 43.7902 2.48416C43.9985 2.1067 44.1026 1.72274 44.1026 1.33228H44.8054Z" fill="black"/>
<path d="M57.1305 6.66216H54.1825V20.4262H53.382V14.1006C53.0826 14.7383 52.6336 15.2394 52.0349 15.6039C51.4492 15.9683 50.7398 16.1505 49.9068 16.1505C48.5662 16.1505 47.551 15.7405 46.8612 14.9206C46.1714 14.0876 45.8264 12.9292 45.8264 11.4454V6.66216H43.347V5.97885H57.1305V6.66216ZM53.382 6.66216H46.6074V11.4454C46.6074 12.7339 46.8872 13.7296 47.4469 14.4325C48.0196 15.1223 48.8851 15.4672 50.0435 15.4672C50.7333 15.4672 51.332 15.311 51.8396 14.9987C52.3473 14.6863 52.7312 14.2698 52.9915 13.7492C53.2518 13.2285 53.382 12.6493 53.382 12.0116V6.66216Z" fill="black"/>
</g>
<defs>
<clipPath id="clip0_134_270">
<rect width="58" height="24" fill="white"/>
</clipPath>
</defs>
</svg>
